<mxfile host="app.diagrams.net" modified="2021-08-06T06:01:25.474Z" agent="5.0 (Macintosh; Intel Mac OS X 10_13_6) AppleWebKit/605.1.15 (KHTML, like Gecko) Version/13.1.2 Safari/605.1.15" etag="BLfTJHPoMC-PaHIDJsfZ" version="14.9.2" type="github">
  <diagram id="R2lEEEUBdFMjLlhIrx00" name="Page-1">
    <mxGraphModel dx="2572" dy="2102" grid="1" gridSize="10" guides="1" tooltips="1" connect="1" arrows="1" fold="1" page="1" pageScale="1" pageWidth="850" pageHeight="1100" math="0" shadow="0" extFonts="Permanent Marker^https://fonts.googleapis.com/css?family=Permanent+Marker">
      <root>
        <mxCell id="0" />
        <mxCell id="1" parent="0" />
        <mxCell id="mkwlghcoii-6o7uAj1Yp-11" style="edgeStyle=orthogonalEdgeStyle;rounded=0;orthogonalLoop=1;jettySize=auto;html=1;entryX=0.5;entryY=1;entryDx=0;entryDy=0;endArrow=none;endFill=0;exitX=0;exitY=0;exitDx=0;exitDy=0;curved=1;" parent="1" source="mkwlghcoii-6o7uAj1Yp-1" target="mkwlghcoii-6o7uAj1Yp-10" edge="1">
          <mxGeometry relative="1" as="geometry">
            <Array as="points">
              <mxPoint x="40" y="30" />
            </Array>
          </mxGeometry>
        </mxCell>
        <mxCell id="mkwlghcoii-6o7uAj1Yp-13" style="edgeStyle=orthogonalEdgeStyle;rounded=0;orthogonalLoop=1;jettySize=auto;html=1;entryX=1;entryY=0.5;entryDx=0;entryDy=0;endArrow=none;endFill=0;exitX=0;exitY=0;exitDx=0;exitDy=0;curved=1;" parent="1" source="mkwlghcoii-6o7uAj1Yp-1" target="mkwlghcoii-6o7uAj1Yp-8" edge="1">
          <mxGeometry relative="1" as="geometry" />
        </mxCell>
        <mxCell id="mkwlghcoii-6o7uAj1Yp-47" style="edgeStyle=orthogonalEdgeStyle;curved=1;rounded=0;orthogonalLoop=1;jettySize=auto;html=1;entryX=1;entryY=0.5;entryDx=0;entryDy=0;endArrow=none;endFill=0;exitX=0;exitY=0;exitDx=0;exitDy=0;" parent="1" source="mkwlghcoii-6o7uAj1Yp-1" target="mkwlghcoii-6o7uAj1Yp-7" edge="1">
          <mxGeometry relative="1" as="geometry">
            <Array as="points">
              <mxPoint x="40" y="125" />
            </Array>
          </mxGeometry>
        </mxCell>
        <mxCell id="mkwlghcoii-6o7uAj1Yp-77" style="edgeStyle=orthogonalEdgeStyle;curved=1;rounded=0;orthogonalLoop=1;jettySize=auto;html=1;entryX=0;entryY=0.5;entryDx=0;entryDy=0;endArrow=none;endFill=0;" parent="1" source="mkwlghcoii-6o7uAj1Yp-1" target="mkwlghcoii-6o7uAj1Yp-76" edge="1">
          <mxGeometry relative="1" as="geometry" />
        </mxCell>
        <mxCell id="mkwlghcoii-6o7uAj1Yp-80" value="1" style="edgeLabel;html=1;align=center;verticalAlign=middle;resizable=0;points=[];" parent="mkwlghcoii-6o7uAj1Yp-77" vertex="1" connectable="0">
          <mxGeometry x="-0.8" y="1" relative="1" as="geometry">
            <mxPoint x="-14" y="1" as="offset" />
          </mxGeometry>
        </mxCell>
        <mxCell id="mkwlghcoii-6o7uAj1Yp-84" style="edgeStyle=orthogonalEdgeStyle;curved=1;rounded=0;orthogonalLoop=1;jettySize=auto;html=1;entryX=0;entryY=0.5;entryDx=0;entryDy=0;endArrow=none;endFill=0;exitX=1;exitY=0;exitDx=0;exitDy=0;" parent="1" source="mkwlghcoii-6o7uAj1Yp-1" target="mkwlghcoii-6o7uAj1Yp-81" edge="1">
          <mxGeometry relative="1" as="geometry" />
        </mxCell>
        <mxCell id="7lw_mSSbU3Fkkb0C-D8N-3" style="edgeStyle=orthogonalEdgeStyle;curved=1;rounded=0;orthogonalLoop=1;jettySize=auto;html=1;entryX=0.5;entryY=1;entryDx=0;entryDy=0;endArrow=none;endFill=0;exitX=0;exitY=0;exitDx=0;exitDy=0;" edge="1" parent="1" source="mkwlghcoii-6o7uAj1Yp-1" target="mkwlghcoii-6o7uAj1Yp-9">
          <mxGeometry relative="1" as="geometry">
            <Array as="points">
              <mxPoint x="40" y="-10" />
            </Array>
          </mxGeometry>
        </mxCell>
        <mxCell id="7lw_mSSbU3Fkkb0C-D8N-10" style="edgeStyle=orthogonalEdgeStyle;curved=1;rounded=0;orthogonalLoop=1;jettySize=auto;html=1;endArrow=none;endFill=0;exitX=0.209;exitY=0.996;exitDx=0;exitDy=0;exitPerimeter=0;" edge="1" parent="1" source="mkwlghcoii-6o7uAj1Yp-1" target="7lw_mSSbU3Fkkb0C-D8N-8">
          <mxGeometry relative="1" as="geometry" />
        </mxCell>
        <mxCell id="7lw_mSSbU3Fkkb0C-D8N-17" value="1" style="edgeLabel;html=1;align=center;verticalAlign=middle;resizable=0;points=[];" vertex="1" connectable="0" parent="7lw_mSSbU3Fkkb0C-D8N-10">
          <mxGeometry x="-0.7993" y="-1" relative="1" as="geometry">
            <mxPoint x="1" y="4" as="offset" />
          </mxGeometry>
        </mxCell>
        <mxCell id="mkwlghcoii-6o7uAj1Yp-1" value="users" style="rounded=0;whiteSpace=wrap;html=1;" parent="1" vertex="1">
          <mxGeometry x="40" y="140" width="120" height="60" as="geometry" />
        </mxCell>
        <mxCell id="mkwlghcoii-6o7uAj1Yp-33" style="edgeStyle=orthogonalEdgeStyle;rounded=0;orthogonalLoop=1;jettySize=auto;html=1;entryX=1;entryY=1;entryDx=0;entryDy=0;endArrow=none;endFill=0;curved=1;exitX=1;exitY=0;exitDx=0;exitDy=0;" parent="1" source="mkwlghcoii-6o7uAj1Yp-2" target="mkwlghcoii-6o7uAj1Yp-30" edge="1">
          <mxGeometry relative="1" as="geometry">
            <Array as="points">
              <mxPoint x="800" y="-67" />
            </Array>
          </mxGeometry>
        </mxCell>
        <mxCell id="mkwlghcoii-6o7uAj1Yp-35" style="edgeStyle=orthogonalEdgeStyle;rounded=0;orthogonalLoop=1;jettySize=auto;html=1;entryX=0.347;entryY=0.97;entryDx=0;entryDy=0;entryPerimeter=0;endArrow=none;endFill=0;curved=1;exitX=1;exitY=0;exitDx=0;exitDy=0;" parent="1" source="mkwlghcoii-6o7uAj1Yp-2" target="mkwlghcoii-6o7uAj1Yp-25" edge="1">
          <mxGeometry relative="1" as="geometry" />
        </mxCell>
        <mxCell id="mkwlghcoii-6o7uAj1Yp-36" style="edgeStyle=orthogonalEdgeStyle;rounded=0;orthogonalLoop=1;jettySize=auto;html=1;entryX=0;entryY=1;entryDx=0;entryDy=0;endArrow=none;endFill=0;curved=1;exitX=1;exitY=0;exitDx=0;exitDy=0;" parent="1" source="mkwlghcoii-6o7uAj1Yp-2" target="mkwlghcoii-6o7uAj1Yp-24" edge="1">
          <mxGeometry relative="1" as="geometry" />
        </mxCell>
        <mxCell id="mkwlghcoii-6o7uAj1Yp-40" style="edgeStyle=orthogonalEdgeStyle;rounded=0;orthogonalLoop=1;jettySize=auto;html=1;entryX=0;entryY=0;entryDx=0;entryDy=0;endArrow=none;endFill=0;curved=1;exitX=1;exitY=0;exitDx=0;exitDy=0;" parent="1" source="mkwlghcoii-6o7uAj1Yp-2" target="mkwlghcoii-6o7uAj1Yp-22" edge="1">
          <mxGeometry relative="1" as="geometry">
            <Array as="points">
              <mxPoint x="830" y="140" />
              <mxPoint x="830" y="189" />
            </Array>
          </mxGeometry>
        </mxCell>
        <mxCell id="mkwlghcoii-6o7uAj1Yp-41" style="edgeStyle=orthogonalEdgeStyle;curved=1;rounded=0;orthogonalLoop=1;jettySize=auto;html=1;entryX=1;entryY=0.5;entryDx=0;entryDy=0;endArrow=none;endFill=0;exitX=1;exitY=0;exitDx=0;exitDy=0;" parent="1" source="mkwlghcoii-6o7uAj1Yp-2" target="mkwlghcoii-6o7uAj1Yp-23" edge="1">
          <mxGeometry relative="1" as="geometry" />
        </mxCell>
        <mxCell id="mkwlghcoii-6o7uAj1Yp-42" style="edgeStyle=orthogonalEdgeStyle;curved=1;rounded=0;orthogonalLoop=1;jettySize=auto;html=1;entryX=1;entryY=0.5;entryDx=0;entryDy=0;endArrow=none;endFill=0;exitX=1;exitY=0;exitDx=0;exitDy=0;" parent="1" source="mkwlghcoii-6o7uAj1Yp-2" target="mkwlghcoii-6o7uAj1Yp-21" edge="1">
          <mxGeometry relative="1" as="geometry" />
        </mxCell>
        <mxCell id="mkwlghcoii-6o7uAj1Yp-43" style="edgeStyle=orthogonalEdgeStyle;curved=1;rounded=0;orthogonalLoop=1;jettySize=auto;html=1;entryX=0.5;entryY=1;entryDx=0;entryDy=0;endArrow=none;endFill=0;exitX=1;exitY=0;exitDx=0;exitDy=0;" parent="1" source="mkwlghcoii-6o7uAj1Yp-2" target="mkwlghcoii-6o7uAj1Yp-28" edge="1">
          <mxGeometry relative="1" as="geometry">
            <Array as="points">
              <mxPoint x="800" y="-60" />
            </Array>
          </mxGeometry>
        </mxCell>
        <mxCell id="mkwlghcoii-6o7uAj1Yp-44" style="edgeStyle=orthogonalEdgeStyle;curved=1;rounded=0;orthogonalLoop=1;jettySize=auto;html=1;entryX=0;entryY=0.5;entryDx=0;entryDy=0;endArrow=none;endFill=0;exitX=1;exitY=0;exitDx=0;exitDy=0;" parent="1" source="mkwlghcoii-6o7uAj1Yp-2" target="mkwlghcoii-6o7uAj1Yp-29" edge="1">
          <mxGeometry relative="1" as="geometry">
            <Array as="points">
              <mxPoint x="800" y="130" />
              <mxPoint x="867" y="130" />
              <mxPoint x="867" y="165" />
            </Array>
          </mxGeometry>
        </mxCell>
        <mxCell id="mkwlghcoii-6o7uAj1Yp-45" style="edgeStyle=orthogonalEdgeStyle;curved=1;rounded=0;orthogonalLoop=1;jettySize=auto;html=1;entryX=0;entryY=0.5;entryDx=0;entryDy=0;endArrow=none;endFill=0;exitX=1;exitY=0;exitDx=0;exitDy=0;" parent="1" source="mkwlghcoii-6o7uAj1Yp-2" target="mkwlghcoii-6o7uAj1Yp-27" edge="1">
          <mxGeometry relative="1" as="geometry" />
        </mxCell>
        <mxCell id="mkwlghcoii-6o7uAj1Yp-46" style="edgeStyle=orthogonalEdgeStyle;curved=1;rounded=0;orthogonalLoop=1;jettySize=auto;html=1;entryX=0.003;entryY=0.606;entryDx=0;entryDy=0;entryPerimeter=0;endArrow=none;endFill=0;exitX=1;exitY=0;exitDx=0;exitDy=0;" parent="1" source="mkwlghcoii-6o7uAj1Yp-2" target="mkwlghcoii-6o7uAj1Yp-26" edge="1">
          <mxGeometry relative="1" as="geometry" />
        </mxCell>
        <mxCell id="mkwlghcoii-6o7uAj1Yp-78" style="edgeStyle=orthogonalEdgeStyle;curved=1;rounded=0;orthogonalLoop=1;jettySize=auto;html=1;entryX=1;entryY=0.5;entryDx=0;entryDy=0;endArrow=none;endFill=0;" parent="1" source="mkwlghcoii-6o7uAj1Yp-2" target="mkwlghcoii-6o7uAj1Yp-76" edge="1">
          <mxGeometry relative="1" as="geometry" />
        </mxCell>
        <mxCell id="mkwlghcoii-6o7uAj1Yp-79" value="M" style="edgeLabel;html=1;align=center;verticalAlign=middle;resizable=0;points=[];" parent="mkwlghcoii-6o7uAj1Yp-78" vertex="1" connectable="0">
          <mxGeometry x="0.1333" y="-1" relative="1" as="geometry">
            <mxPoint x="118" y="1" as="offset" />
          </mxGeometry>
        </mxCell>
        <mxCell id="mkwlghcoii-6o7uAj1Yp-87" style="edgeStyle=orthogonalEdgeStyle;curved=1;rounded=0;orthogonalLoop=1;jettySize=auto;html=1;entryX=1;entryY=0.5;entryDx=0;entryDy=0;endArrow=none;endFill=0;exitX=0;exitY=0;exitDx=0;exitDy=0;" parent="1" source="mkwlghcoii-6o7uAj1Yp-2" target="mkwlghcoii-6o7uAj1Yp-83" edge="1">
          <mxGeometry relative="1" as="geometry" />
        </mxCell>
        <mxCell id="mkwlghcoii-6o7uAj1Yp-95" style="edgeStyle=orthogonalEdgeStyle;curved=1;rounded=0;orthogonalLoop=1;jettySize=auto;html=1;entryX=0.5;entryY=0;entryDx=0;entryDy=0;endArrow=none;endFill=0;" parent="1" source="mkwlghcoii-6o7uAj1Yp-2" target="mkwlghcoii-6o7uAj1Yp-92" edge="1">
          <mxGeometry relative="1" as="geometry" />
        </mxCell>
        <mxCell id="mkwlghcoii-6o7uAj1Yp-97" style="edgeStyle=orthogonalEdgeStyle;curved=1;rounded=0;orthogonalLoop=1;jettySize=auto;html=1;entryX=0.5;entryY=0;entryDx=0;entryDy=0;endArrow=none;endFill=0;exitX=0;exitY=1;exitDx=0;exitDy=0;" parent="1" source="mkwlghcoii-6o7uAj1Yp-2" target="mkwlghcoii-6o7uAj1Yp-94" edge="1">
          <mxGeometry relative="1" as="geometry">
            <Array as="points">
              <mxPoint x="680" y="260" />
              <mxPoint x="520" y="260" />
            </Array>
          </mxGeometry>
        </mxCell>
        <mxCell id="mkwlghcoii-6o7uAj1Yp-2" value="videos" style="rounded=0;whiteSpace=wrap;html=1;" parent="1" vertex="1">
          <mxGeometry x="680" y="140" width="120" height="60" as="geometry" />
        </mxCell>
        <mxCell id="mkwlghcoii-6o7uAj1Yp-18" style="edgeStyle=orthogonalEdgeStyle;rounded=0;orthogonalLoop=1;jettySize=auto;html=1;entryX=0.5;entryY=1;entryDx=0;entryDy=0;endArrow=none;endFill=0;curved=1;" parent="1" source="mkwlghcoii-6o7uAj1Yp-3" target="mkwlghcoii-6o7uAj1Yp-15" edge="1">
          <mxGeometry relative="1" as="geometry" />
        </mxCell>
        <mxCell id="mkwlghcoii-6o7uAj1Yp-19" style="edgeStyle=orthogonalEdgeStyle;rounded=0;orthogonalLoop=1;jettySize=auto;html=1;entryX=0;entryY=0.5;entryDx=0;entryDy=0;endArrow=none;endFill=0;curved=1;" parent="1" source="mkwlghcoii-6o7uAj1Yp-3" target="mkwlghcoii-6o7uAj1Yp-17" edge="1">
          <mxGeometry relative="1" as="geometry" />
        </mxCell>
        <mxCell id="mkwlghcoii-6o7uAj1Yp-20" style="edgeStyle=orthogonalEdgeStyle;rounded=0;orthogonalLoop=1;jettySize=auto;html=1;entryX=1;entryY=0.5;entryDx=0;entryDy=0;endArrow=none;endFill=0;curved=1;" parent="1" source="mkwlghcoii-6o7uAj1Yp-3" target="mkwlghcoii-6o7uAj1Yp-16" edge="1">
          <mxGeometry relative="1" as="geometry" />
        </mxCell>
        <mxCell id="mkwlghcoii-6o7uAj1Yp-3" value="votes" style="rounded=0;whiteSpace=wrap;html=1;" parent="1" vertex="1">
          <mxGeometry x="360" y="-40" width="120" height="60" as="geometry" />
        </mxCell>
        <mxCell id="mkwlghcoii-6o7uAj1Yp-67" style="edgeStyle=orthogonalEdgeStyle;curved=1;rounded=0;orthogonalLoop=1;jettySize=auto;html=1;entryX=0;entryY=0.5;entryDx=0;entryDy=0;endArrow=none;endFill=0;" parent="1" source="mkwlghcoii-6o7uAj1Yp-4" target="mkwlghcoii-6o7uAj1Yp-65" edge="1">
          <mxGeometry relative="1" as="geometry" />
        </mxCell>
        <mxCell id="mkwlghcoii-6o7uAj1Yp-68" style="edgeStyle=orthogonalEdgeStyle;curved=1;rounded=0;orthogonalLoop=1;jettySize=auto;html=1;entryX=1;entryY=0.5;entryDx=0;entryDy=0;endArrow=none;endFill=0;exitX=0.5;exitY=1;exitDx=0;exitDy=0;" parent="1" source="mkwlghcoii-6o7uAj1Yp-4" target="mkwlghcoii-6o7uAj1Yp-66" edge="1">
          <mxGeometry relative="1" as="geometry" />
        </mxCell>
        <mxCell id="mkwlghcoii-6o7uAj1Yp-69" style="edgeStyle=orthogonalEdgeStyle;curved=1;rounded=0;orthogonalLoop=1;jettySize=auto;html=1;entryX=0.061;entryY=0.279;entryDx=0;entryDy=0;entryPerimeter=0;endArrow=none;endFill=0;" parent="1" source="mkwlghcoii-6o7uAj1Yp-4" target="mkwlghcoii-6o7uAj1Yp-64" edge="1">
          <mxGeometry relative="1" as="geometry">
            <Array as="points">
              <mxPoint x="420" y="602" />
            </Array>
          </mxGeometry>
        </mxCell>
        <mxCell id="mkwlghcoii-6o7uAj1Yp-70" style="edgeStyle=orthogonalEdgeStyle;curved=1;rounded=0;orthogonalLoop=1;jettySize=auto;html=1;entryX=0.517;entryY=-0.024;entryDx=0;entryDy=0;entryPerimeter=0;endArrow=none;endFill=0;" parent="1" source="mkwlghcoii-6o7uAj1Yp-4" target="mkwlghcoii-6o7uAj1Yp-62" edge="1">
          <mxGeometry relative="1" as="geometry" />
        </mxCell>
        <mxCell id="mkwlghcoii-6o7uAj1Yp-71" style="edgeStyle=orthogonalEdgeStyle;curved=1;rounded=0;orthogonalLoop=1;jettySize=auto;html=1;entryX=0.982;entryY=0.347;entryDx=0;entryDy=0;entryPerimeter=0;endArrow=none;endFill=0;" parent="1" source="mkwlghcoii-6o7uAj1Yp-4" target="mkwlghcoii-6o7uAj1Yp-61" edge="1">
          <mxGeometry relative="1" as="geometry">
            <Array as="points">
              <mxPoint x="420" y="615" />
            </Array>
          </mxGeometry>
        </mxCell>
        <mxCell id="mkwlghcoii-6o7uAj1Yp-4" value="comments" style="rounded=0;whiteSpace=wrap;html=1;" parent="1" vertex="1">
          <mxGeometry x="360" y="448" width="120" height="60" as="geometry" />
        </mxCell>
        <mxCell id="mkwlghcoii-6o7uAj1Yp-74" style="edgeStyle=orthogonalEdgeStyle;curved=1;rounded=0;orthogonalLoop=1;jettySize=auto;html=1;entryX=1;entryY=0.5;entryDx=0;entryDy=0;endArrow=none;endFill=0;exitX=0;exitY=1;exitDx=0;exitDy=0;" parent="1" source="mkwlghcoii-6o7uAj1Yp-5" target="mkwlghcoii-6o7uAj1Yp-72" edge="1">
          <mxGeometry relative="1" as="geometry">
            <Array as="points">
              <mxPoint x="-10" y="420" />
            </Array>
          </mxGeometry>
        </mxCell>
        <mxCell id="mkwlghcoii-6o7uAj1Yp-75" style="edgeStyle=orthogonalEdgeStyle;curved=1;rounded=0;orthogonalLoop=1;jettySize=auto;html=1;entryX=0.269;entryY=0.057;entryDx=0;entryDy=0;entryPerimeter=0;endArrow=none;endFill=0;exitX=0;exitY=1;exitDx=0;exitDy=0;" parent="1" source="mkwlghcoii-6o7uAj1Yp-5" target="mkwlghcoii-6o7uAj1Yp-73" edge="1">
          <mxGeometry relative="1" as="geometry">
            <Array as="points">
              <mxPoint x="24" y="420" />
            </Array>
          </mxGeometry>
        </mxCell>
        <mxCell id="mkwlghcoii-6o7uAj1Yp-5" value="subscribers" style="rounded=0;whiteSpace=wrap;html=1;" parent="1" vertex="1">
          <mxGeometry x="40" y="360" width="120" height="60" as="geometry" />
        </mxCell>
        <mxCell id="mkwlghcoii-6o7uAj1Yp-55" style="edgeStyle=orthogonalEdgeStyle;curved=1;rounded=0;orthogonalLoop=1;jettySize=auto;html=1;entryX=0;entryY=0.5;entryDx=0;entryDy=0;endArrow=none;endFill=0;exitX=1;exitY=1;exitDx=0;exitDy=0;" parent="1" source="mkwlghcoii-6o7uAj1Yp-6" target="mkwlghcoii-6o7uAj1Yp-50" edge="1">
          <mxGeometry relative="1" as="geometry" />
        </mxCell>
        <mxCell id="mkwlghcoii-6o7uAj1Yp-56" style="edgeStyle=orthogonalEdgeStyle;curved=1;rounded=0;orthogonalLoop=1;jettySize=auto;html=1;entryX=0;entryY=0.5;entryDx=0;entryDy=0;endArrow=none;endFill=0;exitX=1;exitY=1;exitDx=0;exitDy=0;" parent="1" source="mkwlghcoii-6o7uAj1Yp-6" target="mkwlghcoii-6o7uAj1Yp-49" edge="1">
          <mxGeometry relative="1" as="geometry" />
        </mxCell>
        <mxCell id="mkwlghcoii-6o7uAj1Yp-57" style="edgeStyle=orthogonalEdgeStyle;curved=1;rounded=0;orthogonalLoop=1;jettySize=auto;html=1;entryX=0;entryY=0.5;entryDx=0;entryDy=0;endArrow=none;endFill=0;exitX=1;exitY=1;exitDx=0;exitDy=0;" parent="1" source="mkwlghcoii-6o7uAj1Yp-6" target="mkwlghcoii-6o7uAj1Yp-51" edge="1">
          <mxGeometry relative="1" as="geometry" />
        </mxCell>
        <mxCell id="mkwlghcoii-6o7uAj1Yp-58" style="edgeStyle=orthogonalEdgeStyle;curved=1;rounded=0;orthogonalLoop=1;jettySize=auto;html=1;entryX=0;entryY=0;entryDx=0;entryDy=0;endArrow=none;endFill=0;exitX=1;exitY=1;exitDx=0;exitDy=0;" parent="1" source="mkwlghcoii-6o7uAj1Yp-6" target="mkwlghcoii-6o7uAj1Yp-52" edge="1">
          <mxGeometry relative="1" as="geometry" />
        </mxCell>
        <mxCell id="mkwlghcoii-6o7uAj1Yp-59" style="edgeStyle=orthogonalEdgeStyle;curved=1;rounded=0;orthogonalLoop=1;jettySize=auto;html=1;entryX=0.383;entryY=0.023;entryDx=0;entryDy=0;entryPerimeter=0;endArrow=none;endFill=0;exitX=1;exitY=1;exitDx=0;exitDy=0;" parent="1" source="mkwlghcoii-6o7uAj1Yp-6" target="mkwlghcoii-6o7uAj1Yp-53" edge="1">
          <mxGeometry relative="1" as="geometry" />
        </mxCell>
        <mxCell id="mkwlghcoii-6o7uAj1Yp-60" style="edgeStyle=orthogonalEdgeStyle;curved=1;rounded=0;orthogonalLoop=1;jettySize=auto;html=1;entryX=0.5;entryY=0;entryDx=0;entryDy=0;endArrow=none;endFill=0;exitX=1;exitY=1;exitDx=0;exitDy=0;" parent="1" source="mkwlghcoii-6o7uAj1Yp-6" target="mkwlghcoii-6o7uAj1Yp-54" edge="1">
          <mxGeometry relative="1" as="geometry" />
        </mxCell>
        <mxCell id="mkwlghcoii-6o7uAj1Yp-96" style="edgeStyle=orthogonalEdgeStyle;curved=1;rounded=0;orthogonalLoop=1;jettySize=auto;html=1;entryX=0.5;entryY=1;entryDx=0;entryDy=0;endArrow=none;endFill=0;" parent="1" source="mkwlghcoii-6o7uAj1Yp-6" target="mkwlghcoii-6o7uAj1Yp-92" edge="1">
          <mxGeometry relative="1" as="geometry" />
        </mxCell>
        <mxCell id="mkwlghcoii-6o7uAj1Yp-6" value="resolutions" style="rounded=0;whiteSpace=wrap;html=1;" parent="1" vertex="1">
          <mxGeometry x="680" y="360" width="120" height="60" as="geometry" />
        </mxCell>
        <mxCell id="mkwlghcoii-6o7uAj1Yp-7" value="profilePicId" style="ellipse;whiteSpace=wrap;html=1;" parent="1" vertex="1">
          <mxGeometry x="-150" y="100" width="75" height="50" as="geometry" />
        </mxCell>
        <mxCell id="mkwlghcoii-6o7uAj1Yp-8" value="&lt;u&gt;userId&lt;/u&gt;" style="ellipse;whiteSpace=wrap;html=1;" parent="1" vertex="1">
          <mxGeometry x="-130" width="75" height="50" as="geometry" />
        </mxCell>
        <mxCell id="mkwlghcoii-6o7uAj1Yp-9" value="userName" style="ellipse;whiteSpace=wrap;html=1;" parent="1" vertex="1">
          <mxGeometry x="-30" y="-60" width="75" height="50" as="geometry" />
        </mxCell>
        <mxCell id="mkwlghcoii-6o7uAj1Yp-10" value="email" style="ellipse;whiteSpace=wrap;html=1;" parent="1" vertex="1">
          <mxGeometry x="80" y="-20" width="75" height="50" as="geometry" />
        </mxCell>
        <mxCell id="mkwlghcoii-6o7uAj1Yp-15" value="&lt;u&gt;videoId FK&lt;/u&gt;" style="ellipse;whiteSpace=wrap;html=1;" parent="1" vertex="1">
          <mxGeometry x="382.5" y="-220" width="75" height="50" as="geometry" />
        </mxCell>
        <mxCell id="mkwlghcoii-6o7uAj1Yp-16" value="&lt;u&gt;userId FK&lt;/u&gt;" style="ellipse;whiteSpace=wrap;html=1;" parent="1" vertex="1">
          <mxGeometry x="285" y="-180" width="75" height="50" as="geometry" />
        </mxCell>
        <mxCell id="mkwlghcoii-6o7uAj1Yp-17" value="type" style="ellipse;whiteSpace=wrap;html=1;" parent="1" vertex="1">
          <mxGeometry x="480" y="-170" width="75" height="50" as="geometry" />
        </mxCell>
        <mxCell id="mkwlghcoii-6o7uAj1Yp-21" value="&lt;u&gt;videoId&lt;/u&gt;" style="ellipse;whiteSpace=wrap;html=1;" parent="1" vertex="1">
          <mxGeometry x="627.5" y="10" width="75" height="50" as="geometry" />
        </mxCell>
        <mxCell id="mkwlghcoii-6o7uAj1Yp-22" value="viewsLastCalc" style="ellipse;whiteSpace=wrap;html=1;" parent="1" vertex="1">
          <mxGeometry x="860" y="180" width="90" height="60" as="geometry" />
        </mxCell>
        <mxCell id="mkwlghcoii-6o7uAj1Yp-23" value="userId PK" style="ellipse;whiteSpace=wrap;html=1;" parent="1" vertex="1">
          <mxGeometry x="650" y="-60" width="75" height="50" as="geometry" />
        </mxCell>
        <mxCell id="mkwlghcoii-6o7uAj1Yp-24" value="timestamp" style="ellipse;whiteSpace=wrap;html=1;" parent="1" vertex="1">
          <mxGeometry x="945" y="-40" width="75" height="50" as="geometry" />
        </mxCell>
        <mxCell id="mkwlghcoii-6o7uAj1Yp-25" value="access" style="ellipse;whiteSpace=wrap;html=1;" parent="1" vertex="1">
          <mxGeometry x="870" y="-80" width="75" height="50" as="geometry" />
        </mxCell>
        <mxCell id="mkwlghcoii-6o7uAj1Yp-26" value="length" style="ellipse;whiteSpace=wrap;html=1;" parent="1" vertex="1">
          <mxGeometry x="975" y="20" width="75" height="50" as="geometry" />
        </mxCell>
        <mxCell id="mkwlghcoii-6o7uAj1Yp-27" value="thumbnailId" style="ellipse;whiteSpace=wrap;html=1;" parent="1" vertex="1">
          <mxGeometry x="970" y="80" width="75" height="50" as="geometry" />
        </mxCell>
        <mxCell id="mkwlghcoii-6o7uAj1Yp-28" value="description" style="ellipse;whiteSpace=wrap;html=1;" parent="1" vertex="1">
          <mxGeometry x="795" y="-110" width="75" height="50" as="geometry" />
        </mxCell>
        <mxCell id="mkwlghcoii-6o7uAj1Yp-29" value="views" style="ellipse;whiteSpace=wrap;html=1;" parent="1" vertex="1">
          <mxGeometry x="935" y="140" width="75" height="50" as="geometry" />
        </mxCell>
        <mxCell id="mkwlghcoii-6o7uAj1Yp-30" value="videoName" style="ellipse;whiteSpace=wrap;html=1;" parent="1" vertex="1">
          <mxGeometry x="702.5" y="-110" width="75" height="50" as="geometry" />
        </mxCell>
        <mxCell id="mkwlghcoii-6o7uAj1Yp-49" value="videoId PK" style="ellipse;whiteSpace=wrap;html=1;" parent="1" vertex="1">
          <mxGeometry x="930" y="380" width="75" height="50" as="geometry" />
        </mxCell>
        <mxCell id="mkwlghcoii-6o7uAj1Yp-50" value="&lt;u&gt;resolutionId&lt;/u&gt;" style="ellipse;whiteSpace=wrap;html=1;" parent="1" vertex="1">
          <mxGeometry x="895" y="320" width="75" height="50" as="geometry" />
        </mxCell>
        <mxCell id="mkwlghcoii-6o7uAj1Yp-51" value="width" style="ellipse;whiteSpace=wrap;html=1;" parent="1" vertex="1">
          <mxGeometry x="900" y="440" width="75" height="50" as="geometry" />
        </mxCell>
        <mxCell id="mkwlghcoii-6o7uAj1Yp-52" value="height" style="ellipse;whiteSpace=wrap;html=1;" parent="1" vertex="1">
          <mxGeometry x="835" y="490" width="75" height="50" as="geometry" />
        </mxCell>
        <mxCell id="mkwlghcoii-6o7uAj1Yp-53" value="fileType" style="ellipse;whiteSpace=wrap;html=1;" parent="1" vertex="1">
          <mxGeometry x="760" y="520" width="75" height="50" as="geometry" />
        </mxCell>
        <mxCell id="mkwlghcoii-6o7uAj1Yp-54" value="status" style="ellipse;whiteSpace=wrap;html=1;" parent="1" vertex="1">
          <mxGeometry x="670" y="520" width="75" height="50" as="geometry" />
        </mxCell>
        <mxCell id="mkwlghcoii-6o7uAj1Yp-61" value="userId FK" style="ellipse;whiteSpace=wrap;html=1;" parent="1" vertex="1">
          <mxGeometry x="300" y="598" width="75" height="50" as="geometry" />
        </mxCell>
        <mxCell id="mkwlghcoii-6o7uAj1Yp-62" value="videoId FK" style="ellipse;whiteSpace=wrap;html=1;" parent="1" vertex="1">
          <mxGeometry x="382.5" y="628" width="75" height="50" as="geometry" />
        </mxCell>
        <mxCell id="mkwlghcoii-6o7uAj1Yp-64" value="timestamp" style="ellipse;whiteSpace=wrap;html=1;" parent="1" vertex="1">
          <mxGeometry x="457.5" y="588" width="75" height="50" as="geometry" />
        </mxCell>
        <mxCell id="mkwlghcoii-6o7uAj1Yp-65" value="message" style="ellipse;whiteSpace=wrap;html=1;" parent="1" vertex="1">
          <mxGeometry x="480" y="538" width="75" height="50" as="geometry" />
        </mxCell>
        <mxCell id="mkwlghcoii-6o7uAj1Yp-66" value="&lt;u&gt;CommentId&lt;/u&gt;" style="ellipse;whiteSpace=wrap;html=1;" parent="1" vertex="1">
          <mxGeometry x="280" y="538" width="75" height="50" as="geometry" />
        </mxCell>
        <mxCell id="mkwlghcoii-6o7uAj1Yp-72" value="&lt;u&gt;Subscribee FK&lt;/u&gt;&lt;span style=&quot;color: rgba(0 , 0 , 0 , 0) ; font-family: monospace ; font-size: 0px&quot;&gt;%3CmxGraphModel%3E%3Croot%3E%3CmxCell%20id%3D%220%22%2F%3E%3CmxCell%20id%3D%221%22%20parent%3D%220%22%2F%3E%3CmxCell%20id%3D%222%22%20value%3D%22%26lt%3Bu%26gt%3BCommentId%26lt%3B%2Fu%26gt%3B%22%20style%3D%22ellipse%3BwhiteSpace%3Dwrap%3Bhtml%3D1%3B%22%20vertex%3D%221%22%20parent%3D%221%22%3E%3CmxGeometry%20x%3D%22280%22%20y%3D%22450%22%20width%3D%2275%22%20height%3D%2250%22%20as%3D%22geometry%22%2F%3E%3C%2FmxCell%3E%3C%2Froot%3E%3C%2FmxGraphModel%3E FK F&lt;/span&gt;" style="ellipse;whiteSpace=wrap;html=1;" parent="1" vertex="1">
          <mxGeometry x="-120" y="430" width="110" height="50" as="geometry" />
        </mxCell>
        <mxCell id="mkwlghcoii-6o7uAj1Yp-73" value="&lt;u&gt;Subscriber FK&lt;/u&gt;&lt;span style=&quot;color: rgba(0 , 0 , 0 , 0) ; font-family: monospace ; font-size: 0px&quot;&gt;%3CmxGraphModel%3E%3Croot%3E%3CmxCell%20id%3D%220%22%2F%3E%3CmxCell%20id%3D%221%22%20parent%3D%220%22%2F%3E%3CmxCell%20id%3D%222%22%20value%3D%22%26lt%3Bu%26gt%3BCommentId%26lt%3B%2Fu%26gt%3B%22%20style%3D%22ellipse%3BwhiteSpace%3Dwrap%3Bhtml%3D1%3B%22%20vertex%3D%221%22%20parent%3D%221%22%3E%3CmxGeometry%20x%3D%22280%22%20y%3D%22450%22%20width%3D%2275%22%20height%3D%2250%22%20as%3D%22geometry%22%2F%3E%3C%2FmxCell%3E%3C%2Froot%3E%3C%2FmxGraphModel%3r&lt;/span&gt;" style="ellipse;whiteSpace=wrap;html=1;" parent="1" vertex="1">
          <mxGeometry y="500" width="90" height="50" as="geometry" />
        </mxCell>
        <mxCell id="mkwlghcoii-6o7uAj1Yp-76" value="has" style="rhombus;whiteSpace=wrap;html=1;" parent="1" vertex="1">
          <mxGeometry x="395" y="145" width="50" height="50" as="geometry" />
        </mxCell>
        <mxCell id="mkwlghcoii-6o7uAj1Yp-85" style="edgeStyle=orthogonalEdgeStyle;curved=1;rounded=0;orthogonalLoop=1;jettySize=auto;html=1;entryX=0;entryY=0.5;entryDx=0;entryDy=0;endArrow=none;endFill=0;" parent="1" source="mkwlghcoii-6o7uAj1Yp-81" target="mkwlghcoii-6o7uAj1Yp-3" edge="1">
          <mxGeometry relative="1" as="geometry" />
        </mxCell>
        <mxCell id="mkwlghcoii-6o7uAj1Yp-81" value="has" style="rhombus;whiteSpace=wrap;html=1;" parent="1" vertex="1">
          <mxGeometry x="220" y="50" width="50" height="50" as="geometry" />
        </mxCell>
        <mxCell id="mkwlghcoii-6o7uAj1Yp-86" style="edgeStyle=orthogonalEdgeStyle;curved=1;rounded=0;orthogonalLoop=1;jettySize=auto;html=1;entryX=1;entryY=0.5;entryDx=0;entryDy=0;endArrow=none;endFill=0;" parent="1" source="mkwlghcoii-6o7uAj1Yp-83" target="mkwlghcoii-6o7uAj1Yp-3" edge="1">
          <mxGeometry relative="1" as="geometry" />
        </mxCell>
        <mxCell id="mkwlghcoii-6o7uAj1Yp-83" value="has" style="rhombus;whiteSpace=wrap;html=1;" parent="1" vertex="1">
          <mxGeometry x="570" y="50" width="50" height="50" as="geometry" />
        </mxCell>
        <mxCell id="mkwlghcoii-6o7uAj1Yp-88" value="1" style="edgeLabel;html=1;align=center;verticalAlign=middle;resizable=0;points=[];" parent="1" vertex="1" connectable="0">
          <mxGeometry x="159.999932885906" y="130" as="geometry" />
        </mxCell>
        <mxCell id="mkwlghcoii-6o7uAj1Yp-89" value="1" style="edgeLabel;html=1;align=center;verticalAlign=middle;resizable=0;points=[];" parent="1" vertex="1" connectable="0">
          <mxGeometry x="429.999932885906" y="210" as="geometry">
            <mxPoint x="249" y="-79" as="offset" />
          </mxGeometry>
        </mxCell>
        <mxCell id="mkwlghcoii-6o7uAj1Yp-90" value="M" style="edgeLabel;html=1;align=center;verticalAlign=middle;resizable=0;points=[];" parent="1" vertex="1" connectable="0">
          <mxGeometry x="674.8571428571427" y="180" as="geometry">
            <mxPoint x="-184" y="-191" as="offset" />
          </mxGeometry>
        </mxCell>
        <mxCell id="mkwlghcoii-6o7uAj1Yp-91" value="M" style="edgeLabel;html=1;align=center;verticalAlign=middle;resizable=0;points=[];" parent="1" vertex="1" connectable="0">
          <mxGeometry x="349.99714285714265" y="-10" as="geometry" />
        </mxCell>
        <mxCell id="mkwlghcoii-6o7uAj1Yp-92" value="has" style="rhombus;whiteSpace=wrap;html=1;" parent="1" vertex="1">
          <mxGeometry x="715" y="260" width="50" height="50" as="geometry" />
        </mxCell>
        <mxCell id="mkwlghcoii-6o7uAj1Yp-98" style="edgeStyle=orthogonalEdgeStyle;curved=1;rounded=0;orthogonalLoop=1;jettySize=auto;html=1;entryX=1;entryY=0;entryDx=0;entryDy=0;endArrow=none;endFill=0;exitX=0.5;exitY=1;exitDx=0;exitDy=0;" parent="1" source="mkwlghcoii-6o7uAj1Yp-94" target="mkwlghcoii-6o7uAj1Yp-4" edge="1">
          <mxGeometry relative="1" as="geometry" />
        </mxCell>
        <mxCell id="mkwlghcoii-6o7uAj1Yp-94" value="has" style="rhombus;whiteSpace=wrap;html=1;" parent="1" vertex="1">
          <mxGeometry x="495" y="290" width="50" height="50" as="geometry" />
        </mxCell>
        <mxCell id="mkwlghcoii-6o7uAj1Yp-100" value="1" style="edgeLabel;html=1;align=center;verticalAlign=middle;resizable=0;points=[];" parent="1" vertex="1" connectable="0">
          <mxGeometry x="330.003687150838" y="165" as="geometry">
            <mxPoint x="350" y="55" as="offset" />
          </mxGeometry>
        </mxCell>
        <mxCell id="mkwlghcoii-6o7uAj1Yp-101" value="1" style="edgeLabel;html=1;align=center;verticalAlign=middle;resizable=0;points=[];" parent="1" vertex="1" connectable="0">
          <mxGeometry x="440.003687150838" y="190" as="geometry">
            <mxPoint x="300" y="23" as="offset" />
          </mxGeometry>
        </mxCell>
        <mxCell id="mkwlghcoii-6o7uAj1Yp-102" value="M" style="edgeLabel;html=1;align=center;verticalAlign=middle;resizable=0;points=[];" parent="1" vertex="1" connectable="0">
          <mxGeometry x="674.6666666666665" y="180" as="geometry">
            <mxPoint x="65" y="167" as="offset" />
          </mxGeometry>
        </mxCell>
        <mxCell id="7lw_mSSbU3Fkkb0C-D8N-2" style="edgeStyle=orthogonalEdgeStyle;rounded=0;orthogonalLoop=1;jettySize=auto;html=1;entryX=1;entryY=1;entryDx=0;entryDy=0;curved=1;endArrow=none;endFill=0;exitX=0.5;exitY=0;exitDx=0;exitDy=0;" edge="1" parent="1" source="7lw_mSSbU3Fkkb0C-D8N-1" target="mkwlghcoii-6o7uAj1Yp-1">
          <mxGeometry relative="1" as="geometry">
            <Array as="points">
              <mxPoint x="305" y="260" />
              <mxPoint x="160" y="260" />
            </Array>
          </mxGeometry>
        </mxCell>
        <mxCell id="7lw_mSSbU3Fkkb0C-D8N-4" style="edgeStyle=orthogonalEdgeStyle;curved=1;rounded=0;orthogonalLoop=1;jettySize=auto;html=1;entryX=0;entryY=0;entryDx=0;entryDy=0;endArrow=none;endFill=0;exitX=0.5;exitY=1;exitDx=0;exitDy=0;" edge="1" parent="1" source="7lw_mSSbU3Fkkb0C-D8N-1" target="mkwlghcoii-6o7uAj1Yp-4">
          <mxGeometry relative="1" as="geometry" />
        </mxCell>
        <mxCell id="7lw_mSSbU3Fkkb0C-D8N-1" value="has" style="rhombus;whiteSpace=wrap;html=1;" vertex="1" parent="1">
          <mxGeometry x="280" y="290" width="50" height="50" as="geometry" />
        </mxCell>
        <mxCell id="7lw_mSSbU3Fkkb0C-D8N-5" value="M" style="edgeLabel;html=1;align=center;verticalAlign=middle;resizable=0;points=[];" vertex="1" connectable="0" parent="1">
          <mxGeometry x="495" y="423" as="geometry">
            <mxPoint x="-15" y="8" as="offset" />
          </mxGeometry>
        </mxCell>
        <mxCell id="7lw_mSSbU3Fkkb0C-D8N-6" value="M" style="edgeLabel;html=1;align=center;verticalAlign=middle;resizable=0;points=[];" vertex="1" connectable="0" parent="1">
          <mxGeometry x="375" y="423" as="geometry">
            <mxPoint x="-15" y="8" as="offset" />
          </mxGeometry>
        </mxCell>
        <mxCell id="7lw_mSSbU3Fkkb0C-D8N-7" value="1" style="edgeLabel;html=1;align=center;verticalAlign=middle;resizable=0;points=[];" vertex="1" connectable="0" parent="1">
          <mxGeometry x="-189.996312849162" y="170" as="geometry">
            <mxPoint x="350" y="55" as="offset" />
          </mxGeometry>
        </mxCell>
        <mxCell id="7lw_mSSbU3Fkkb0C-D8N-15" style="edgeStyle=orthogonalEdgeStyle;curved=1;rounded=0;orthogonalLoop=1;jettySize=auto;html=1;entryX=0.209;entryY=0.008;entryDx=0;entryDy=0;entryPerimeter=0;endArrow=none;endFill=0;" edge="1" parent="1" source="7lw_mSSbU3Fkkb0C-D8N-8" target="mkwlghcoii-6o7uAj1Yp-5">
          <mxGeometry relative="1" as="geometry" />
        </mxCell>
        <mxCell id="7lw_mSSbU3Fkkb0C-D8N-18" value="M" style="edgeLabel;html=1;align=center;verticalAlign=middle;resizable=0;points=[];" vertex="1" connectable="0" parent="7lw_mSSbU3Fkkb0C-D8N-15">
          <mxGeometry x="0.5209" relative="1" as="geometry">
            <mxPoint as="offset" />
          </mxGeometry>
        </mxCell>
        <mxCell id="7lw_mSSbU3Fkkb0C-D8N-8" value="has" style="rhombus;whiteSpace=wrap;html=1;" vertex="1" parent="1">
          <mxGeometry x="40" y="260" width="50" height="50" as="geometry" />
        </mxCell>
        <mxCell id="7lw_mSSbU3Fkkb0C-D8N-13" style="edgeStyle=orthogonalEdgeStyle;curved=1;rounded=0;orthogonalLoop=1;jettySize=auto;html=1;entryX=0.793;entryY=0.988;entryDx=0;entryDy=0;entryPerimeter=0;endArrow=none;endFill=0;" edge="1" parent="1" source="7lw_mSSbU3Fkkb0C-D8N-9" target="mkwlghcoii-6o7uAj1Yp-1">
          <mxGeometry relative="1" as="geometry" />
        </mxCell>
        <mxCell id="7lw_mSSbU3Fkkb0C-D8N-20" value="M" style="edgeLabel;html=1;align=center;verticalAlign=middle;resizable=0;points=[];" vertex="1" connectable="0" parent="7lw_mSSbU3Fkkb0C-D8N-13">
          <mxGeometry x="0.7092" relative="1" as="geometry">
            <mxPoint as="offset" />
          </mxGeometry>
        </mxCell>
        <mxCell id="7lw_mSSbU3Fkkb0C-D8N-16" style="edgeStyle=orthogonalEdgeStyle;curved=1;rounded=0;orthogonalLoop=1;jettySize=auto;html=1;entryX=0.791;entryY=-0.008;entryDx=0;entryDy=0;entryPerimeter=0;endArrow=none;endFill=0;" edge="1" parent="1" source="7lw_mSSbU3Fkkb0C-D8N-9" target="mkwlghcoii-6o7uAj1Yp-5">
          <mxGeometry relative="1" as="geometry" />
        </mxCell>
        <mxCell id="7lw_mSSbU3Fkkb0C-D8N-19" value="1" style="edgeLabel;html=1;align=center;verticalAlign=middle;resizable=0;points=[];" vertex="1" connectable="0" parent="7lw_mSSbU3Fkkb0C-D8N-16">
          <mxGeometry x="0.6072" relative="1" as="geometry">
            <mxPoint as="offset" />
          </mxGeometry>
        </mxCell>
        <mxCell id="7lw_mSSbU3Fkkb0C-D8N-9" value="has" style="rhombus;whiteSpace=wrap;html=1;" vertex="1" parent="1">
          <mxGeometry x="110" y="260" width="50" height="50" as="geometry" />
        </mxCell>
      </root>
    </mxGraphModel>
  </diagram>
</mxfile>
